<svg width="24" height="24" viewBox="0 0 24 24" fill="none" xmlns="http://www.w3.org/2000/svg">
<path d="M15 5.63037H6C5.70163 5.63037 5.41548 5.7489 5.2045 5.95988C4.99353 6.17085 4.875 6.457 4.875 6.75537V21.0054C4.87502 21.0743 4.89405 21.1419 4.92999 21.2007C4.96593 21.2596 5.01739 21.3074 5.07872 21.3388C5.14005 21.3703 5.20887 21.3843 5.27763 21.3792C5.34638 21.3741 5.4124 21.3502 5.46844 21.3101L10.5 17.7166L15.5334 21.3101C15.5964 21.3557 15.6722 21.3803 15.75 21.3804C15.8096 21.3802 15.8684 21.3661 15.9216 21.3391C15.9829 21.3076 16.0343 21.2597 16.0702 21.2008C16.1061 21.142 16.1251 21.0743 16.125 21.0054V6.75537C16.125 6.457 16.0065 6.17085 15.7955 5.95988C15.5845 5.7489 15.2984 5.63037 15 5.63037ZM15.375 20.2769L10.7175 16.9497C10.6539 16.9043 10.5777 16.8799 10.4995 16.8799C10.4214 16.8799 10.3452 16.9043 10.2816 16.9497L5.625 20.2769V6.75537C5.625 6.65591 5.66451 6.56053 5.73484 6.49021C5.80516 6.41988 5.90054 6.38037 6 6.38037H15C15.0995 6.38037 15.1948 6.41988 15.2652 6.49021C15.3355 6.56053 15.375 6.65591 15.375 6.75537V20.2769ZM19.125 3.75537V18.0054C19.125 18.1048 19.0855 18.2002 19.0152 18.2705C18.9448 18.3409 18.8495 18.3804 18.75 18.3804C18.6505 18.3804 18.5552 18.3409 18.4848 18.2705C18.4145 18.2002 18.375 18.1048 18.375 18.0054V3.75537C18.375 3.65591 18.3355 3.56053 18.2652 3.49021C18.1948 3.41988 18.0995 3.38037 18 3.38037H8.25C8.15054 3.38037 8.05516 3.34086 7.98483 3.27054C7.91451 3.20021 7.875 3.10483 7.875 3.00537C7.875 2.90591 7.91451 2.81053 7.98483 2.74021C8.05516 2.66988 8.15054 2.63037 8.25 2.63037H18C18.2984 2.63037 18.5845 2.7489 18.7955 2.95988C19.0065 3.17085 19.125 3.457 19.125 3.75537Z" fill="#EF0303"/>
</svg>
