<svg width="25" height="24" viewBox="0 0 25 24" fill="none" xmlns="http://www.w3.org/2000/svg">
<path d="M21.0135 5.61063C20.0637 4.66402 18.7774 4.13249 17.4365 4.13249C16.0955 4.13249 14.8092 4.66402 13.8594 5.61063L12.3716 6.99063L10.8838 5.60595C9.93387 4.65701 8.64588 4.1243 7.30318 4.125C5.96047 4.1257 4.67305 4.65976 3.72411 5.6097C2.77517 6.55963 2.24246 7.84761 2.24316 9.19032C2.24387 10.533 2.77793 11.8204 3.72786 12.7694L12.1044 21.2688C12.1393 21.3042 12.1809 21.3323 12.2268 21.3515C12.2726 21.3707 12.3219 21.3806 12.3716 21.3806C12.4213 21.3806 12.4706 21.3707 12.5164 21.3515C12.5623 21.3323 12.6039 21.3042 12.6388 21.2688L21.0135 12.7713C21.4838 12.3011 21.8568 11.743 22.1113 11.1287C22.3658 10.5143 22.4968 9.8559 22.4968 9.19095C22.4968 8.52599 22.3658 7.86755 22.1113 7.25323C21.8568 6.63891 21.4838 6.08075 21.0135 5.61063ZM20.4819 12.2425L12.3716 20.4709L4.25942 12.2406C3.45059 11.4318 2.9962 10.3348 2.9962 9.19095C2.9962 8.04709 3.45059 6.95008 4.25942 6.14126C5.06825 5.33243 6.16525 4.87804 7.30911 4.87804C8.45296 4.87804 9.54997 5.33243 10.3588 6.14126L10.3682 6.15063L12.1157 7.77813C12.1851 7.84298 12.2766 7.87905 12.3716 7.87905C12.4666 7.87905 12.5581 7.84298 12.6275 7.77813L14.375 6.15063L14.3844 6.14126C14.782 5.72749 15.2581 5.39721 15.7849 5.16979C16.3117 4.94236 16.8786 4.82235 17.4524 4.81679C18.0262 4.81123 18.5953 4.92023 19.1264 5.13741C19.6575 5.35459 20.14 5.67558 20.5454 6.08157C20.9509 6.48756 21.2713 6.97039 21.4879 7.50177C21.7044 8.03315 21.8127 8.6024 21.8064 9.17617C21.8001 9.74994 21.6794 10.3167 21.4514 10.8432C21.2233 11.3697 20.8924 11.8455 20.4782 12.2425H20.4819Z" fill="#EF0303"/>
</svg>
