<?xml version="1.0" encoding="UTF-8"?>
<svg xmlns="http://www.w3.org/2000/svg" version="1.1" viewBox="0 0 52 70">
  <defs>
    <style>
      .cls-1 {
        fill: #ef0303;
      }
    </style>
  </defs>
  <!-- Generator: Adobe Illustrator 28.6.0, SVG Export Plug-In . SVG Version: 1.2.0 Build 709)  -->
  <g>
    <g id="Layer_1">
      <path id="read-icon" class="cls-1" d="M25.6,30.6c2.5,0,4.5-2,4.5-4.5s-2-4.5-4.5-4.5-4.5,2-4.5,4.5,2,4.5,4.5,4.5ZM35.8,35.9h0c-8.6-6.8-17-2.2-19.6,0-6,5.2-7.9,14.6-8.2,17.3-1,9.3,5.1,6.6,10.7,2.5l.2,3.2h14.5l.6-13.1,4.8,7.8c.4.6.5,1.4.4,2.1v9.3c0,1.6.9,3.2,2.3,4.1l2.7-15.3s-1.6-12.6-8.3-18ZM26.9,48.6s-3.8,3.8-8.2,7.1l-.3-5-4.9,2.7,4.6-7.5.3,4.8,3-1.7-.3-8.4s0,0,0,0h0c.3,0,4.7.3,5.8,2.2v5.7ZM33.1,50.6h-5.5v-7.8c1.2-2,5.9-2.2,5.9-2.2l-.4,10Z"/>
    </g>
  </g>
</svg>